<svg id="Layer_1" enable-background="new 0 0 512 512" height="512" viewBox="0 0 512 512" width="512" xmlns="http://www.w3.org/2000/svg"><g><path d="m80 256c0-120.176 89.826-219.372 206-234.11-9.824-1.247-19.837-1.89-30-1.89-130.339 0-236 105.661-236 236s105.661 236 236 236c10.163 0 20.176-.643 30-1.89-116.174-14.738-206-113.934-206-234.11z" fill="#cee1f2"/><path d="m256 512c-68.38 0-132.667-26.629-181.02-74.98-48.351-48.353-74.98-112.64-74.98-181.02s26.629-132.667 74.98-181.02c48.353-48.351 112.64-74.98 181.02-74.98s132.667 26.629 181.02 74.98c48.351 48.353 74.98 112.64 74.98 181.02s-26.629 132.667-74.98 181.02c-48.353 48.351-112.64 74.98-181.02 74.98zm0-472c-119.103 0-216 96.897-216 216s96.897 216 216 216 216-96.897 216-216-96.897-216-216-216zm-32.917 363s52.338-.22 52.507-.225c66.587-1.966 109.653-41.54 126.298-74.831 4.939-9.879.935-21.893-8.944-26.833-9.879-4.938-21.894-.934-26.833 8.944-11.693 23.386-42.653 51.2-91.458 52.73l-51.736.215c-11.045.046-19.962 9.038-19.917 20.083.046 11.018 8.991 19.917 19.999 19.917z" fill="#0023c4"/><path d="m208.402 183.58c8.125 8.121 12.599 18.406 12.599 32.406 0 13.807-11.193 25-25 25s-25-11.193-25-25c0-1.664.166-3.289.477-4.863-10.497.846-21.673 5.774-33.273 14.707-8.75 6.741-21.308 5.109-28.049-3.642-6.739-8.751-5.109-21.31 3.643-28.049 20.457-15.755 42.256-23.553 63.203-23.154 11.476 0 23.281 4.48 31.4 12.595zm138.6-12.58c-20.947-.399-42.746 7.398-63.203 23.154-8.751 6.739-10.382 19.297-3.643 28.049 6.741 8.751 19.298 10.382 28.049 3.642 11.6-8.933 22.777-13.861 33.273-14.707-.31 1.573-.477 3.198-.477 4.863 0 13.807 11.193 25 25 25s25-11.193 25-25c0-14-4.475-24.285-12.599-32.406-8.118-8.116-19.923-12.595-31.4-12.595z" fill="#ff5cf4"/></g></svg>